<?xml version="1.0" encoding="UTF-8" standalone="no"?>
<!-- Created with Inkscape (http://www.inkscape.org/) -->

<svg
   xmlns:dc="http://purl.org/dc/elements/1.1/"
   xmlns:cc="http://creativecommons.org/ns#"
   xmlns:rdf="http://www.w3.org/1999/02/22-rdf-syntax-ns#"
   xmlns:svg="http://www.w3.org/2000/svg"
   xmlns="http://www.w3.org/2000/svg"
   xmlns:sodipodi="http://sodipodi.sourceforge.net/DTD/sodipodi-0.dtd"
   xmlns:inkscape="http://www.inkscape.org/namespaces/inkscape"
   width="210mm"
   height="297mm"
   viewBox="0 0 744.09448819 1052.3622047"
   id="svg2"
   version="1.1"
   inkscape:version="0.91 r13725"
   sodipodi:docname="Logo_red_rebels.svg">
  <defs
     id="defs4" />
  <sodipodi:namedview
     id="base"
     pagecolor="#ffffff"
     bordercolor="#666666"
     borderopacity="1.0"
     inkscape:pageopacity="0.0"
     inkscape:pageshadow="2"
     inkscape:zoom="0.49497475"
     inkscape:cx="38.523257"
     inkscape:cy="684.90617"
     inkscape:document-units="px"
     inkscape:current-layer="layer1"
     showgrid="false"
     inkscape:window-width="1920"
     inkscape:window-height="1018"
     inkscape:window-x="1912"
     inkscape:window-y="-8"
     inkscape:window-maximized="1" />
  <metadata
     id="metadata7">
    <rdf:RDF>
      <cc:Work
         rdf:about="">
        <dc:format>image/svg+xml</dc:format>
        <dc:type
           rdf:resource="http://purl.org/dc/dcmitype/StillImage" />
        <dc:title></dc:title>
      </cc:Work>
    </rdf:RDF>
  </metadata>
  <g
     inkscape:label="Layer 1"
     inkscape:groupmode="layer"
     id="layer1">
    <path
       inkscape:export-xdpi="90.099998"
       inkscape:export-ydpi="90.099998"
       style="opacity:1;fill:#000000;fill-opacity:1;fill-rule:evenodd;stroke:none;stroke-width:5;stroke-linecap:square;stroke-linejoin:bevel;stroke-miterlimit:4;stroke-dasharray:none;stroke-dashoffset:0.98573762;stroke-opacity:1"
       d="m 373.112,225.14766 -53.40083,157.01616 -165.82768,2.6739 44.67791,33.40443 126.14695,0 0.0694,2.98982 c -15.53163,6.83392 -18.09245,19.88634 -17.9544,34.87237 l -57.61972,0 37.50772,28.04121 -48.69648,158.53418 38.19741,-26.96239 c 0.65552,2.35168 -0.0606,5.61223 1.6991,7.29732 2.01586,1.93038 5.40907,2.84653 8.10261,2.11524 1.76282,-0.47861 3.24011,-2.16216 3.87214,-3.87598 1.54866,-4.19943 -2.81579,-9.2696 -1.0557,-13.38489 0.21727,-0.50801 0.49329,-1.05807 0.8014,-1.62207 l 8.69208,-6.13761 c 0.006,0.004 0.0138,0.004 0.0197,0.008 5.48097,3.06008 -5.48322,13.16643 -2.46584,18.67104 0.93428,1.70438 3.52185,3.28966 5.28228,2.46583 3.7405,-1.75044 2.12654,-7.983 3.17092,-11.97859 0.95066,-3.63711 -0.31111,-8.83323 2.81646,-10.91905 2.07229,-1.38203 5.20329,-0.12329 7.39751,1.0557 2.49109,1.33841 4.53527,3.73728 5.63675,6.34182 4.35675,10.30186 3.95703,22.38068 2.46584,33.46607 -0.51492,3.82793 -4.72723,7.15159 -3.876,10.91903 0.40256,1.78174 2.06756,3.61881 3.876,3.87601 2.65348,0.37739 5.84976,-1.47803 7.0469,-3.87601 2.96686,-5.94293 -2.5859,-13.08851 -2.82029,-19.72671 -0.29079,-8.23527 -4.51836,-19.32202 1.76075,-24.65839 1.97654,-1.67979 5.65342,-0.81951 7.75198,0.70509 3.61741,2.62801 4.03903,8.03428 5.28231,12.3292 0.82662,2.85562 -0.97738,7.03632 1.41014,8.80766 2.09383,1.55344 6.03363,0.90461 7.74812,-1.05954 2.62537,-3.00766 -0.69268,-8.04296 0,-11.97473 0.47691,-2.70706 0.12941,-7.1911 2.82031,-7.75199 3.17105,-0.66096 5.71838,3.95764 6.69244,7.04692 2.85637,9.05912 -6.76038,19.02533 -4.2266,28.1799 0.68978,2.49224 2.34696,5.90847 4.93168,5.98738 2.79322,0.0852 4.7913,-3.49591 5.71382,-6.13379 2.62762,-7.51341 -1.29753,-15.86562 -1.83782,-23.80691 -0.13572,-1.99498 -2.19673,-5.20984 -0.35447,-5.98735 3.36926,-1.42198 5.97057,4.73542 7.39752,8.10259 2.58962,6.11076 -4.44114,16.42014 1.22905,19.86926 1.59197,0.9684 4.05398,-0.7245 5.11277,-2.25778 2.47229,-3.58026 -1.54006,-9.30736 0.70507,-13.03427 1.0599,-1.75945 3.49489,-4.18293 5.2823,-3.17091 6.94823,3.93402 0.40505,15.97897 0,23.95332 -0.64664,12.73065 -3.52534,25.30487 -3.876,38.04713 -0.13907,5.05264 -3.13365,11.85737 0.70509,15.14563 3.31877,2.84286 10.20816,1.92289 13.03427,-1.41014 4.03119,-4.75426 -0.8172,-12.43846 -1.05569,-18.66717 -0.44936,-11.73584 -0.58764,-23.48298 -0.70508,-35.22682 -0.0823,-8.21906 -2.01928,-16.69083 0,-24.65839 0.78738,-3.10674 2.27799,-6.22439 4.58108,-8.45322 2.64147,-2.55628 6.36011,-6.04487 9.86336,-4.93167 3.55469,1.12955 1.83787,8.43234 5.28228,9.86335 2.26419,0.94069 5.58335,-0.14815 7.04691,-2.11523 1.33175,-1.78991 -1.03028,-4.71358 0,-6.69243 1.98575,-3.81392 6.2931,-6.90364 10.56456,-7.39752 3.14073,-0.36313 6.8184,1.06412 8.80769,3.52152 2.17414,2.68575 1.71683,6.76265 1.76076,10.21782 0.0618,4.86514 -3.5282,9.78589 -2.11139,14.44057 1.47661,4.85115 5.16215,10.83419 10.21398,11.27352 4.00131,0.34798 5.9901,-2.11358 9.51274,-7.39752 3.52262,-5.28396 3.52043,-10.56845 7.04307,-10.56845 3.52261,0 8.45705,1.05791 8.45705,6.34185 0,5.28393 2.11248,8.10259 5.98736,8.10259 3.8749,0 7.04526,0.70452 7.39752,-2.46584 0.17892,-1.60996 0.44426,-3.66779 0.62032,-5.49421 l 21.81112,15.31519 -49.08947,-158.41476 37.03382,-27.8293 -41.77285,0 c -2.29771,-4.39849 -5.29868,-8.03748 -9.57055,-11.70889 -0.92594,-9.12726 -1.72501,-17.73706 -4.71591,-26.15331 l 106.43948,0 45.1711,-33.94381 -165.83155,-2.2655 -53.78611,-156.88517 z m 39.36866,158.32615 c 0.88715,-0.0233 1.71139,-0.0158 2.45813,0.004 13.11422,7.87076 19.95272,30.33505 26.42302,43.68003 l 0,18.31655 c 14.15875,10.66452 13.23244,25.33449 6.69243,40.15852 2.71725,15.94207 -25.39684,26.32749 -38.04713,32.05591 l 4.55026,52.81518 c -0.31135,1.28973 -0.0892,2.84796 0.38913,4.51558 l 0.10396,1.19438 0.36216,0.25429 c 2.03008,5.79123 6.07741,12.34762 1.64132,13.78558 -3.96649,1.28575 -5.23454,-6.66193 -6.69244,-10.56843 -2.2006,-5.89655 -0.91994,-12.66711 -2.82031,-18.66717 -1.50629,-4.75581 -1.76818,-14.18783 -6.69243,-13.38874 -7.37613,1.19698 -2.05978,14.80301 -3.17093,22.19256 -1.00754,6.70057 3.24734,17.89745 -3.16704,20.08118 -7.37464,2.51062 -16.97577,-16.06648 -16.97577,-16.06648 0,0 1.99984,7.31808 1.98424,11.06544 -0.0178,4.4279 1.97326,12.86361 -2.45044,13.05739 -8.15182,0.35709 -9.09952,-17.13301 -8.79612,-25.55612 -0.42329,2.82842 -0.97821,6.2874 -1.24061,8.34148 -0.53049,4.15242 0.60058,8.88983 -1.59124,12.45634 -1.93479,3.14828 -5.85603,7.8459 -9.17369,6.21855 -3.9543,-1.93965 -0.84939,-10.32761 -0.83608,-13.18455 0.0773,-16.58184 -4.60419,-15.00309 -4.60419,-15.00309 0,0 -0.32062,9.58097 -1.76075,14.08996 -1.58242,4.95453 -2.4641,12.0923 -7.39752,13.73936 -3.18937,1.06479 -6.67984,-1.95432 -9.15828,-4.2266 -2.09338,-1.91925 -1.39046,-7.54604 -4.22661,-7.39752 -3.20273,0.16768 -0.70769,9.30128 -3.87598,8.80382 -4.21483,-0.6618 -0.87011,-8.48659 -1.31384,-12.72991 -0.37895,-3.6238 -1.152,-9.10763 -1.152,-10.86895 0,-1.08441 -1.46781,-5.75765 -2.84343,-8.13342 -0.2508,-9.48194 -0.69554,-18.97501 -1.38318,-28.50356 l -3.17091,-9.50889 5.28613,-10.21782 c -6.72271,-25.79732 -10.65592,-47.14742 -9.15826,-76.08655 0.37747,-7.29397 9.44674,-14.34742 16.20133,-17.96595 2.68678,-16.64427 7.24375,-20.71817 23.6027,-19.72671 10.39292,-18.87921 24.20633,-17.41084 38.74835,-9.15828 7.73104,-8.11064 17.04587,-9.70405 23.25594,-9.86721 z m -44.20788,188.92951 c 0.45423,-3.03492 0.75768,-5.34632 0.393,-4.43465 -0.15072,0.37692 -0.31038,2.14124 -0.393,4.43465 z m 30.8153,-176.59646 c -5.61557,19.76762 6.35413,24.91123 10.56843,46.49647 l -4.93168,2.46584 -10.56843,0 c -0.27412,6.98288 0.0252,16.94669 7.04689,22.54702 0,0 -4.52031,4.21359 -7.39751,4.57721 -1.95281,0.2468 -5.63676,-1.76076 -5.63676,-1.76076 -1.61346,-32.2695 -15.92508,-33.0257 -20.78238,-65.87257 l -3.87601,3.17091 c 0.98316,20.02492 21.85144,37.16807 21.13688,62.70166 0,0 -0.47269,5.91069 -2.46584,7.74814 -2.30364,2.12344 -6.35869,3.51429 -9.16215,2.11521 -1.03476,-0.5164 -1.4063,-3.17091 -1.4063,-3.17091 -10.09392,-23.55249 -20.0176,-25.12475 -33.81665,-46.85094 l -2.11524,2.8203 c 3.01856,13.49087 23.35055,27.63555 34.87235,44.03064 0,0 -2.57161,6.90551 -5.28228,9.15829 -1.62801,1.35299 -3.88839,2.38953 -5.98737,2.11523 -17.34197,-2.26622 -29.53519,-18.2091 -43.32941,-29.59007 3.92628,14.72355 25.68654,26.65663 42.62433,32.05591 28.59723,10.83764 10.91906,37.69266 -31.00021,30.29514 11.05029,3.70724 32.41391,5.58162 37.69266,11.26966 2.23267,2.40579 3.55193,8.83378 4.36915,15.44231 -0.0473,-0.92179 -0.11836,-2.03034 -0.14262,-2.75865 -0.20932,-6.28635 -1.66766,-12.68692 0,-16.5558 1.66765,-3.86888 3.11682,-4.60118 6.34182,-5.99122 8.98461,-3.60105 20.15397,1.83443 29.59007,-2.46584 0,0 -5.64843,-0.60947 -8.45319,-1.05569 -3.66156,-0.58253 -7.95515,0.11106 -10.9229,-2.11137 -3.27886,-2.45533 -5.04864,-6.86906 -5.63677,-10.9229 -0.56673,-3.90623 0.59101,-8.03619 2.21925,-11.63182 2.02542,-4.47272 5.17184,-8.61073 9.05427,-11.61643 3.03572,-2.35018 6.80925,-3.80159 10.56843,-4.58105 4.71399,-0.97746 9.63149,-0.11264 14.44443,0 7.52113,0.17615 15.43479,3.52317 22.54316,1.05954 1.83588,-0.63629 3.3002,-3.36903 4.55409,-4.26898 -2.08439,0.51993 -7.46619,1.54188 -10.19084,1.80314 -4.90917,0.47072 -9.9425,0.87993 -14.79504,0 -2.96145,-0.53702 -5.89298,-1.58859 -8.45321,-3.17091 -8.73337,-5.64242 -14.93476,-14.33653 -13.38487,-25.01286 0,0 7.74812,-2.11137 10.21396,-2.11137 2.46584,0 28.8861,10e-4 30.29514,1.41014 1.40906,1.40906 -0.70507,-3.87598 -0.70507,-3.87598 l -23.95332,1.41014 c -1.24397,-23.6355 -13.73342,-22.55251 -13.73934,-49.31678 z m 44.71259,78.86448 c 0.73902,-0.18445 1.09702,-0.3121 0.72819,-0.3121 -0.2344,0 -0.47798,0.13256 -0.72819,0.3121 z m -74.16012,72.90021 c 0.36199,7.03448 1.2676,18.37821 1.2676,18.37821 0,0 -0.15268,-9.3621 -1.2676,-18.37821 z"
       id="path4147"
       inkscape:connector-curvature="0" />
  </g>
</svg>
